{"asset":{"version":"2.0","generator":"Blockbench 4.6.4 glTF exporter"},"scenes":[{"nodes":[3],"name":"blockbench_export"}],"scene":0,"nodes":[{"name":"cylinder","mesh":0},{"name":"cone","mesh":1},{"name":"cone","mesh":2},{"children":[0,1,2]}],"bufferViews":[{"buffer":0,"byteOffset":0,"byteLength":5760,"target":34962,"byteStride":12},{"buffer":0,"byteOffset":5760,"byteLength":5760,"target":34962,"byteStride":12},{"buffer":0,"byteOffset":11520,"byteLength":3840,"target":34962,"byteStride":8},{"buffer":0,"byteOffset":15360,"byteLength":1152,"target":34963},{"buffer":0,"byteOffset":16512,"byteLength":3456,"target":34962,"byteStride":12},{"buffer":0,"byteOffset":19968,"byteLength":3456,"target":34962,"byteStride":12},{"buffer":0,"byteOffset":23424,"byteLength":2304,"target":34962,"byteStride":8},{"buffer":0,"byteOffset":25728,"byteLength":576,"target":34963},{"buffer":0,"byteOffset":26304,"byteLength":3456,"target":34962,"byteStride":12},{"buffer":0,"byteOffset":29760,"byteLength":3456,"target":34962,"byteStride":12},{"buffer":0,"byteOffset":33216,"byteLength":2304,"target":34962,"byteStride":8},{"buffer":0,"byteOffset":35520,"byteLength":576,"target":34963}],"buffers":[{"byteLength":36096,"uri":"data:application/octet-stream;base64,"}],"accessors":[{"bufferView":0,"componentType":5126,"count":480,"max":[0.09375,0.625,0.09375],"min":[-0.09375,0,-0.09375],"type":"VEC3"},{"bufferView":1,"componentType":5126,"count":480,"max":[1,1,1],"min":[-1,-1,-1],"type":"VEC3"},{"bufferView":2,"componentType":5126,"count":480,"max":[0.5782263278961182,1],"min":[0,0.4217737019062042],"type":"VEC2"},{"bufferView":3,"componentType":5123,"count":576,"max":[479],"min":[0],"type":"SCALAR"},{"bufferView":4,"componentType":5126,"count":288,"max":[0.3125,1.1875,0.3125],"min":[-0.3125,0.5625,-0.3125],"type":"VEC3"},{"bufferView":5,"componentType":5126,"count":288,"max":[0.8944271802902222,0.4472135901451111,0.8944271802902222],"min":[-0.8944271802902222,-1,-0.8944271802902222],"type":"VEC3"},{"bufferView":6,"componentType":5126,"count":288,"max":[0.6901946067810059,1],"min":[0,0.2756156325340271],"type":"VEC2"},{"bufferView":7,"componentType":5123,"count":288,"max":[287],"min":[0],"type":"SCALAR"},{"bufferView":8,"componentType":5126,"count":288,"max":[0.3125,1.6875,0.3125],"min":[-0.3125,1.0625,-0.3125],"type":"VEC3"},{"bufferView":9,"componentType":5126,"count":288,"max":[0.8944271802902222,0.4472135901451111,0.8944271802902222],"min":[-0.8944271802902222,-1,-0.8944271802902222],"type":"VEC3"},{"bufferView":10,"componentType":5126,"count":288,"max":[0.6901946067810059,1],"min":[0,0.2756156325340271],"type":"VEC2"},{"bufferView":11,"componentType":5123,"count":288,"max":[287],"min":[0],"type":"SCALAR"}],"materials":[{"pbrMetallicRoughness":{"metallicFactor":0,"roughnessFactor":1,"baseColorTexture":{"index":0}},"alphaMode":"MASK","alphaCutoff":0.05,"doubleSided":true},{"pbrMetallicRoughness":{"metallicFactor":0,"roughnessFactor":1,"baseColorTexture":{"index":1}},"alphaMode":"MASK","alphaCutoff":0.05,"doubleSided":true},{"pbrMetallicRoughness":{"metallicFactor":0,"roughnessFactor":1,"baseColorTexture":{"index":2}},"alphaMode":"MASK","alphaCutoff":0.05,"doubleSided":true}],"textures":[{"sampler":0,"source":0,"name":"texture"},{"sampler":1,"source":1,"name":"texture"},{"sampler":2,"source":2,"name":"texture"}],"samplers":[{"magFilter":9728,"minFilter":9728,"wrapS":33071,"wrapT":33071},{"magFilter":9728,"minFilter":9728,"wrapS":33071,"wrapT":33071},{"magFilter":9728,"minFilter":9728,"wrapS":33071,"wrapT":33071}],"images":[{"mimeType":"image/png","uri":"data:image/png;base64,"},{"mimeType":"image/png","uri":"data:image/png;base64,"},{"mimeType":"image/png","uri":"data:image/png;base64,"}],"meshes":[{"primitives":[{"mode":4,"attributes":{"POSITION":0,"NORMAL":1,"TEXCOORD_0":2},"indices":3,"material":0}]},{"primitives":[{"mode":4,"attributes":{"POSITION":4,"NORMAL":5,"TEXCOORD_0":6},"indices":7,"material":1}]},{"primitives":[{"mode":4,"attributes":{"POSITION":8,"NORMAL":9,"TEXCOORD_0":10},"indices":11,"material":2}]}]}